<svg width="24" height="7" viewBox="0 0 24 7" fill="none" xmlns="http://www.w3.org/2000/svg">
<path d="M1.47889 4.7128C1.19661 4.7128 0.942969 4.66371 0.717966 4.56552C0.497053 4.46325 0.323187 4.32416 0.196367 4.14824C0.0695466 3.96824 0.00409096 3.76165 0 3.52846H0.595236C0.615691 3.72892 0.697511 3.8987 0.840695 4.03779C0.98797 4.17279 1.2007 4.24029 1.47889 4.24029C1.7448 4.24029 1.95344 4.17484 2.1048 4.04393C2.26026 3.90892 2.33799 3.7371 2.33799 3.52846C2.33799 3.36482 2.29299 3.23187 2.20299 3.12959C2.11299 3.02732 2.00049 2.94959 1.86548 2.89641C1.73048 2.84323 1.54843 2.78595 1.31934 2.72459C1.03706 2.65095 0.810012 2.57731 0.638192 2.50367C0.470462 2.43004 0.325232 2.31549 0.202503 2.16003C0.0838649 2.00049 0.0245458 1.78775 0.0245458 1.52184C0.0245458 1.28866 0.0838649 1.08206 0.202503 0.902059C0.321141 0.722057 0.486826 0.582963 0.699556 0.48478C0.916378 0.386597 1.16388 0.337505 1.44207 0.337505C1.84298 0.337505 2.17026 0.437734 2.4239 0.638192C2.68163 0.838649 2.82686 1.10456 2.85959 1.43593H2.24594C2.22549 1.27229 2.13958 1.12911 1.98821 1.00638C1.83685 0.879559 1.63639 0.816149 1.38684 0.816149C1.15365 0.816149 0.963424 0.877513 0.816149 1.00024C0.668874 1.11888 0.595236 1.28661 0.595236 1.50343C0.595236 1.65889 0.638192 1.78571 0.724102 1.88389C0.814103 1.98208 0.922514 2.05776 1.04933 2.11094C1.18025 2.16003 1.36229 2.21731 1.59548 2.28276C1.87776 2.36049 2.1048 2.43822 2.27663 2.51595C2.44845 2.58959 2.59572 2.70618 2.71845 2.86573C2.84118 3.02118 2.90254 3.23391 2.90254 3.50392C2.90254 3.71256 2.84732 3.90892 2.73686 4.09302C2.6264 4.27711 2.46276 4.42643 2.24594 4.54098C2.02912 4.65553 1.77344 4.7128 1.47889 4.7128Z" fill="black"/>
<path d="M6.79253 2.85959C6.79253 2.96595 6.78639 3.07846 6.77412 3.19709H4.08635C4.10681 3.52846 4.21931 3.78824 4.42386 3.97642C4.6325 4.16052 4.88409 4.25256 5.17864 4.25256C5.42001 4.25256 5.62047 4.19734 5.78002 4.08688C5.94365 3.97233 6.0582 3.82097 6.12366 3.63278H6.72503C6.63503 3.95597 6.45503 4.21984 6.18502 4.42439C5.91502 4.62484 5.57956 4.72507 5.17864 4.72507C4.85955 4.72507 4.57318 4.65348 4.31954 4.5103C4.06999 4.36711 3.87362 4.16461 3.73044 3.90279C3.58725 3.63687 3.51566 3.33005 3.51566 2.98232C3.51566 2.63459 3.58521 2.32981 3.7243 2.06799C3.8634 1.80616 4.05772 1.60571 4.30727 1.46661C4.56091 1.32343 4.85136 1.25184 5.17864 1.25184C5.49774 1.25184 5.78002 1.32138 6.02547 1.46048C6.27093 1.59957 6.45912 1.79185 6.59003 2.0373C6.72503 2.27867 6.79253 2.55277 6.79253 2.85959ZM6.2157 2.743C6.2157 2.53027 6.16866 2.34822 6.07457 2.19685C5.98047 2.04139 5.85161 1.9248 5.68797 1.84707C5.52842 1.76525 5.35046 1.72434 5.1541 1.72434C4.87182 1.72434 4.63045 1.81435 4.42999 1.99435C4.23363 2.17435 4.12113 2.4239 4.09249 2.743H6.2157Z" fill="black"/>
<path d="M8.21077 1.7673V3.74938C8.21077 3.91301 8.24555 4.02961 8.31509 4.09915C8.38464 4.16461 8.50532 4.19734 8.67714 4.19734H9.08829V4.66984H8.5851C8.27418 4.66984 8.041 4.59825 7.88554 4.45507C7.73008 4.31188 7.65235 4.07665 7.65235 3.74938V1.7673H7.21667V1.30707H7.65235V0.460234H8.21077V1.30707H9.08829V1.7673H8.21077Z" fill="black"/>
<path d="M10.446 1.7673V3.74938C10.446 3.91301 10.4808 4.02961 10.5503 4.09915C10.6199 4.16461 10.7406 4.19734 10.9124 4.19734H11.3235V4.66984H10.8203C10.5094 4.66984 10.2762 4.59825 10.1208 4.45507C9.96533 4.31188 9.88761 4.07665 9.88761 3.74938V1.7673H9.45192V1.30707H9.88761V0.460234H10.446V1.30707H11.3235V1.7673H10.446Z" fill="black"/>
<path d="M12.2885 0.760921C12.1822 0.760921 12.0922 0.724102 12.0185 0.650464C11.9449 0.576827 11.9081 0.486826 11.9081 0.38046C11.9081 0.274095 11.9449 0.184094 12.0185 0.110456C12.0922 0.0368188 12.1822 0 12.2885 0C12.3908 0 12.4767 0.0368188 12.5463 0.110456C12.6199 0.184094 12.6567 0.274095 12.6567 0.38046C12.6567 0.486826 12.6199 0.576827 12.5463 0.650464C12.4767 0.724102 12.3908 0.760921 12.2885 0.760921ZM12.5585 1.30707V4.66984H12.0001V1.30707H12.5585Z" fill="black"/>
<path d="M15.1487 1.2457C15.5578 1.2457 15.8892 1.37048 16.1428 1.62002C16.3965 1.86548 16.5233 2.2214 16.5233 2.68777V4.66984H15.971V2.76754C15.971 2.43208 15.8871 2.1764 15.7194 2.00049C15.5517 1.82048 15.3226 1.73048 15.0321 1.73048C14.7376 1.73048 14.5023 1.82253 14.3264 2.00662C14.1546 2.19072 14.0687 2.45867 14.0687 2.8105V4.66984H13.5103V1.30707H14.0687V1.78571C14.1791 1.61389 14.3285 1.48093 14.5167 1.38684C14.7089 1.29275 14.9196 1.2457 15.1487 1.2457Z" fill="black"/>
<path d="M18.8223 1.25184C19.1127 1.25184 19.3664 1.31525 19.5832 1.44207C19.8041 1.56889 19.9678 1.72844 20.0741 1.92071V1.30707H20.6387V4.74348C20.6387 5.05031 20.5732 5.32235 20.4423 5.55963C20.3114 5.801 20.1232 5.98918 19.8778 6.12418C19.6364 6.25919 19.3541 6.32669 19.0309 6.32669C18.5891 6.32669 18.2209 6.22237 17.9264 6.01373C17.6318 5.80509 17.4579 5.52077 17.4048 5.16076H17.957C18.0184 5.36531 18.1452 5.52895 18.3375 5.65168C18.5298 5.7785 18.7609 5.84191 19.0309 5.84191C19.3378 5.84191 19.5873 5.74577 19.7796 5.55349C19.9759 5.36122 20.0741 5.09121 20.0741 4.74348V4.03779C19.9637 4.23416 19.8 4.3978 19.5832 4.52871C19.3664 4.65962 19.1127 4.72507 18.8223 4.72507C18.5236 4.72507 18.2516 4.65143 18.0061 4.50416C17.7648 4.35688 17.5745 4.15029 17.4354 3.88438C17.2964 3.61846 17.2268 3.31573 17.2268 2.97618C17.2268 2.63254 17.2964 2.33185 17.4354 2.07412C17.5745 1.8123 17.7648 1.6098 18.0061 1.46661C18.2516 1.32343 18.5236 1.25184 18.8223 1.25184ZM20.0741 2.98232C20.0741 2.72868 20.023 2.50777 19.9207 2.31958C19.8184 2.1314 19.6793 1.98821 19.5034 1.89003C19.3316 1.78775 19.1414 1.73662 18.9327 1.73662C18.7241 1.73662 18.5339 1.78571 18.3621 1.88389C18.1902 1.98208 18.0532 2.12526 17.9509 2.31344C17.8486 2.50163 17.7975 2.72254 17.7975 2.97618C17.7975 3.23391 17.8486 3.45892 17.9509 3.65119C18.0532 3.83938 18.1902 3.98461 18.3621 4.08688C18.5339 4.18506 18.7241 4.23416 18.9327 4.23416C19.1414 4.23416 19.3316 4.18506 19.5034 4.08688C19.6793 3.98461 19.8184 3.83938 19.9207 3.65119C20.023 3.45892 20.0741 3.23596 20.0741 2.98232Z" fill="black"/>
<path d="M22.7728 4.72507C22.5151 4.72507 22.284 4.68212 22.0794 4.59621C21.8749 4.50621 21.7133 4.38348 21.5946 4.22802C21.476 4.06847 21.4105 3.88642 21.3983 3.68187H21.9751C21.9915 3.8496 22.0692 3.98665 22.2083 4.09302C22.3515 4.19938 22.5376 4.25256 22.7667 4.25256C22.9794 4.25256 23.1471 4.20552 23.2699 4.11143C23.3926 4.01733 23.454 3.8987 23.454 3.75551C23.454 3.60824 23.3885 3.49983 23.2576 3.43028C23.1267 3.35664 22.9242 3.28505 22.6501 3.2155C22.4005 3.15005 22.196 3.08459 22.0364 3.01914C21.881 2.94959 21.746 2.84936 21.6314 2.71845C21.521 2.58345 21.4658 2.40754 21.4658 2.19072C21.4658 2.01889 21.5169 1.86139 21.6192 1.71821C21.7214 1.57502 21.8667 1.46252 22.0549 1.3807C22.243 1.29479 22.4578 1.25184 22.6992 1.25184C23.0715 1.25184 23.3722 1.34593 23.6012 1.53411C23.8303 1.7223 23.9531 1.98003 23.9694 2.30731H23.411C23.3987 2.1314 23.3272 1.99026 23.1962 1.88389C23.0694 1.77753 22.8976 1.72434 22.6808 1.72434C22.4803 1.72434 22.3208 1.7673 22.2021 1.85321C22.0835 1.93912 22.0242 2.05162 22.0242 2.19072C22.0242 2.30117 22.0589 2.39322 22.1285 2.46686C22.2021 2.5364 22.2921 2.59368 22.3985 2.63868C22.509 2.67959 22.6603 2.72663 22.8526 2.77982C23.094 2.84527 23.2903 2.91073 23.4417 2.97618C23.5931 3.03755 23.7219 3.13164 23.8283 3.25846C23.9388 3.38528 23.996 3.55096 24.0001 3.75551C24.0001 3.93961 23.949 4.10529 23.8467 4.25256C23.7444 4.39984 23.5992 4.51643 23.411 4.60234C23.2269 4.68416 23.0142 4.72507 22.7728 4.72507Z" fill="black"/>
</svg>
