<svg width="18" height="5" viewBox="0 0 18 5" fill="none" xmlns="http://www.w3.org/2000/svg">
<path d="M2.87942 1.67451C2.87942 2.0329 2.75584 2.33155 2.50868 2.57047C2.26564 2.80527 1.89284 2.92267 1.39028 2.92267H0.56229V4.72077H0V0.413994H1.39028C1.87636 0.413994 2.24504 0.531396 2.49632 0.766198C2.75172 1.001 2.87942 1.30377 2.87942 1.67451ZM1.39028 2.45925C1.70335 2.45925 1.93403 2.39128 2.08233 2.25534C2.23062 2.1194 2.30477 1.92579 2.30477 1.67451C2.30477 1.14312 1.99994 0.87742 1.39028 0.87742H0.56229V2.45925H1.39028Z" fill="black"/>
<path d="M4.14057 1.8846C4.23943 1.69099 4.37949 1.54063 4.56074 1.43353C4.74611 1.32643 4.97062 1.27288 5.23425 1.27288V1.8537H5.08596C4.4557 1.8537 4.14057 2.19561 4.14057 2.87942V4.72077H3.57828V1.33467H4.14057V1.8846Z" fill="black"/>
<path d="M7.36012 4.77638C7.04293 4.77638 6.75458 4.70429 6.49506 4.56011C6.23966 4.41594 6.03781 4.21203 5.88952 3.94839C5.74534 3.68063 5.67325 3.37168 5.67325 3.02154C5.67325 2.67551 5.7474 2.37068 5.8957 2.10704C6.04811 1.83929 6.25408 1.63538 6.5136 1.49532C6.77312 1.35114 7.06353 1.27906 7.38484 1.27906C7.70615 1.27906 7.99656 1.35114 8.25608 1.49532C8.5156 1.63538 8.71951 1.83723 8.8678 2.10087C9.02022 2.3645 9.09643 2.67139 9.09643 3.02154C9.09643 3.37168 9.01816 3.68063 8.86162 3.94839C8.70921 4.21203 8.50118 4.41594 8.23754 4.56011C7.97391 4.70429 7.68143 4.77638 7.36012 4.77638ZM7.36012 4.28206C7.56197 4.28206 7.75146 4.23469 7.92859 4.13994C8.10572 4.0452 8.24784 3.90308 8.35495 3.71359C8.46617 3.5241 8.52178 3.29341 8.52178 3.02154C8.52178 2.74966 8.46823 2.51898 8.36112 2.32949C8.25402 2.14 8.11396 1.99994 7.94095 1.90932C7.76794 1.81457 7.58051 1.7672 7.37866 1.7672C7.17269 1.7672 6.9832 1.81457 6.81019 1.90932C6.6413 1.99994 6.50536 2.14 6.40238 2.32949C6.29939 2.51898 6.2479 2.74966 6.2479 3.02154C6.2479 3.29753 6.29733 3.53028 6.3962 3.71977C6.49918 3.90926 6.63512 4.05137 6.80401 4.14612C6.97291 4.23674 7.15828 4.28206 7.36012 4.28206Z" fill="black"/>
<path d="M11.2137 1.79809H10.5031V4.72077H9.94078V1.79809H9.50207V1.33467H9.94078V1.09369C9.94078 0.714706 10.0376 0.43871 10.2312 0.265698C10.4289 0.088566 10.7441 0 11.1766 0V0.469605C10.9294 0.469605 10.7543 0.519037 10.6514 0.617902C10.5525 0.712646 10.5031 0.871241 10.5031 1.09369V1.33467H11.2137V1.79809Z" fill="black"/>
<path d="M12.1597 0.784735C12.0526 0.784735 11.9619 0.747661 11.8878 0.673513C11.8136 0.599364 11.7766 0.508739 11.7766 0.401636C11.7766 0.294533 11.8136 0.203908 11.8878 0.129759C11.9619 0.0556113 12.0526 0.0185372 12.1597 0.0185372C12.2627 0.0185372 12.3492 0.0556113 12.4192 0.129759C12.4933 0.203908 12.5304 0.294533 12.5304 0.401636C12.5304 0.508739 12.4933 0.599364 12.4192 0.673513C12.3492 0.747661 12.2627 0.784735 12.1597 0.784735ZM12.4315 1.33467V4.72077H11.8693V1.33467H12.4315Z" fill="black"/>
<path d="M13.9522 0.148297V4.72077H13.3899V0.148297H13.9522Z" fill="black"/>
<path d="M18 2.89796C18 3.00506 17.9938 3.11834 17.9815 3.2378H15.2751C15.2957 3.57147 15.4089 3.83305 15.6149 4.02254C15.825 4.20791 16.0783 4.30059 16.3749 4.30059C16.618 4.30059 16.8198 4.24498 16.9805 4.13376C17.1452 4.01842 17.2606 3.866 17.3265 3.67651H17.932C17.8414 4.00194 17.6602 4.26764 17.3883 4.47361C17.1164 4.67545 16.7786 4.77638 16.3749 4.77638C16.0536 4.77638 15.7653 4.70429 15.5099 4.56011C15.2586 4.41594 15.0608 4.21203 14.9167 3.94839C14.7725 3.68063 14.7004 3.37168 14.7004 3.02154C14.7004 2.67139 14.7704 2.3645 14.9105 2.10087C15.0506 1.83723 15.2462 1.63538 15.4975 1.49532C15.7529 1.35114 16.0454 1.27906 16.3749 1.27906C16.6962 1.27906 16.9805 1.34909 17.2276 1.48914C17.4748 1.6292 17.6643 1.82281 17.7961 2.06997C17.932 2.31301 18 2.58901 18 2.89796ZM17.4192 2.78056C17.4192 2.56635 17.3718 2.38304 17.2771 2.23062C17.1823 2.07409 17.0526 1.95669 16.8878 1.87842C16.7271 1.79603 16.5479 1.75484 16.3502 1.75484C16.066 1.75484 15.8229 1.84547 15.6211 2.02672C15.4234 2.20797 15.3101 2.45925 15.2812 2.78056H17.4192Z" fill="black"/>
</svg>
