<svg width="26" height="5" viewBox="0 0 26 5" fill="none" xmlns="http://www.w3.org/2000/svg">
<path d="M1.35257 0.398916C1.82629 0.398916 2.23559 0.488256 2.58049 0.666937C2.92954 0.841463 3.19548 1.09286 3.37832 1.42114C3.56531 1.74941 3.65881 2.13586 3.65881 2.58049C3.65881 3.02511 3.56531 3.41156 3.37832 3.73984C3.19548 4.06396 2.92954 4.31328 2.58049 4.4878C2.23559 4.65817 1.82629 4.74336 1.35257 4.74336H0V0.398916H1.35257ZM1.35257 4.27588C1.91355 4.27588 2.34155 4.12836 2.63658 3.83333C2.93162 3.53415 3.07913 3.11653 3.07913 2.58049C3.07913 2.04029 2.92954 1.61852 2.63035 1.31518C2.33532 1.01183 1.90939 0.860162 1.35257 0.860162H0.567209V4.27588H1.35257Z" fill="black"/>
<path d="M4.69992 0.7729C4.59188 0.7729 4.50046 0.735501 4.42567 0.660704C4.35087 0.585908 4.31347 0.494489 4.31347 0.38645C4.31347 0.27841 4.35087 0.186992 4.42567 0.112195C4.50046 0.0373984 4.59188 0 4.69992 0C4.80381 0 4.89107 0.0373984 4.96171 0.112195C5.03651 0.186992 5.07391 0.27841 5.07391 0.38645C5.07391 0.494489 5.03651 0.585908 4.96171 0.660704C4.89107 0.735501 4.80381 0.7729 4.69992 0.7729ZM4.97418 1.32764V4.74336H4.40697V1.32764H4.97418Z" fill="black"/>
<path d="M7.1501 4.79946C6.88831 4.79946 6.65353 4.75583 6.44576 4.66856C6.238 4.57714 6.07386 4.45248 5.95335 4.29458C5.83285 4.13252 5.76636 3.94761 5.75389 3.73984H6.3398C6.35642 3.91021 6.43538 4.04941 6.57666 4.15745C6.7221 4.26549 6.91117 4.31951 7.14387 4.31951C7.35995 4.31951 7.53032 4.27172 7.65498 4.17615C7.77964 4.08058 7.84197 3.96007 7.84197 3.81463C7.84197 3.66504 7.77548 3.55492 7.64251 3.48428C7.50954 3.40948 7.30385 3.33677 7.02544 3.26612C6.77196 3.19964 6.56419 3.13315 6.40213 3.06667C6.24423 2.99602 6.1071 2.89422 5.99075 2.76125C5.87856 2.62412 5.82246 2.44544 5.82246 2.2252C5.82246 2.05068 5.8744 1.8907 5.97828 1.74526C6.08217 1.59982 6.22968 1.48555 6.42083 1.40244C6.61198 1.31518 6.83014 1.27154 7.0753 1.27154C7.45344 1.27154 7.75886 1.36712 7.99156 1.55827C8.22426 1.74941 8.34893 2.0112 8.36555 2.34363H7.79834C7.78587 2.16495 7.71315 2.02159 7.58018 1.91355C7.45136 1.80551 7.27684 1.75149 7.0566 1.75149C6.85299 1.75149 6.69093 1.79512 6.57043 1.88238C6.44992 1.96965 6.38967 2.08392 6.38967 2.2252C6.38967 2.3374 6.42499 2.43089 6.49563 2.50569C6.57043 2.57633 6.66184 2.63451 6.76988 2.68022C6.88208 2.72177 7.03583 2.76956 7.23113 2.82358C7.4763 2.89006 7.67575 2.95655 7.8295 3.02303C7.98325 3.08537 8.11415 3.18094 8.22219 3.30976C8.33438 3.43857 8.39256 3.60686 8.39671 3.81463C8.39671 4.00163 8.34477 4.16992 8.24089 4.31951C8.137 4.4691 7.98949 4.58753 7.79834 4.6748C7.61135 4.7579 7.39527 4.79946 7.1501 4.79946Z" fill="black"/>
<path d="M8.98549 3.02927C8.98549 2.67606 9.05613 2.36856 9.19742 2.10677C9.3387 1.84083 9.534 1.63514 9.78332 1.4897C10.0368 1.34426 10.3256 1.27154 10.6497 1.27154C11.0694 1.27154 11.4143 1.37335 11.6844 1.57696C11.9587 1.78058 12.1394 2.06314 12.2267 2.42466H11.6158C11.5577 2.21689 11.4434 2.05275 11.273 1.93225C11.1068 1.81174 10.899 1.75149 10.6497 1.75149C10.3256 1.75149 10.0638 1.86369 9.86435 2.08808C9.6649 2.30831 9.56517 2.62204 9.56517 3.02927C9.56517 3.44065 9.6649 3.75854 9.86435 3.98293C10.0638 4.20732 10.3256 4.31951 10.6497 4.31951C10.899 4.31951 11.1068 4.26134 11.273 4.14499C11.4392 4.02864 11.5535 3.86242 11.6158 3.64634H12.2267C12.1353 3.99539 11.9524 4.27588 11.6782 4.4878C11.4039 4.69557 11.0611 4.79946 10.6497 4.79946C10.3256 4.79946 10.0368 4.72674 9.78332 4.5813C9.534 4.43586 9.3387 4.23017 9.19742 3.96423C9.05613 3.69828 8.98549 3.38663 8.98549 3.02927Z" fill="black"/>
<path d="M14.4732 4.79946C14.1533 4.79946 13.8624 4.72674 13.6006 4.5813C13.343 4.43586 13.1393 4.23017 12.9897 3.96423C12.8443 3.69413 12.7716 3.38247 12.7716 3.02927C12.7716 2.68022 12.8464 2.37272 12.996 2.10677C13.1497 1.83668 13.3575 1.63098 13.6193 1.4897C13.8811 1.34426 14.174 1.27154 14.4981 1.27154C14.8223 1.27154 15.1152 1.34426 15.377 1.4897C15.6388 1.63098 15.8445 1.8346 15.9941 2.10054C16.1478 2.36649 16.2247 2.67606 16.2247 3.02927C16.2247 3.38247 16.1458 3.69413 15.9878 3.96423C15.8341 4.23017 15.6243 4.43586 15.3583 4.5813C15.0924 4.72674 14.7973 4.79946 14.4732 4.79946ZM14.4732 4.30081C14.6768 4.30081 14.868 4.25303 15.0467 4.15745C15.2253 4.06188 15.3687 3.91852 15.4767 3.72737C15.5889 3.53622 15.645 3.30352 15.645 3.02927C15.645 2.75501 15.591 2.52231 15.483 2.33116C15.3749 2.14002 15.2336 1.99873 15.0591 1.90732C14.8846 1.81174 14.6955 1.76396 14.4919 1.76396C14.2841 1.76396 14.093 1.81174 13.9185 1.90732C13.7481 1.99873 13.611 2.14002 13.5071 2.33116C13.4032 2.52231 13.3513 2.75501 13.3513 3.02927C13.3513 3.30768 13.4011 3.54246 13.5009 3.7336C13.6047 3.92475 13.7419 4.06811 13.9122 4.16369C14.0826 4.2551 14.2696 4.30081 14.4732 4.30081Z" fill="black"/>
<path d="M18.242 4.21978L19.3016 1.32764H19.9063L18.5661 4.74336H17.9054L16.5653 1.32764H17.1762L18.242 4.21978Z" fill="black"/>
<path d="M23.5809 2.90461C23.5809 3.01265 23.5747 3.12692 23.5622 3.24742H20.8322C20.8529 3.58401 20.9672 3.84788 21.175 4.03902C21.3869 4.22602 21.6425 4.31951 21.9416 4.31951C22.1868 4.31951 22.3904 4.26341 22.5525 4.15122C22.7187 4.03487 22.835 3.88112 22.9015 3.68997H23.5124C23.421 4.01825 23.2381 4.28627 22.9639 4.49404C22.6896 4.69765 22.3489 4.79946 21.9416 4.79946C21.6175 4.79946 21.3266 4.72674 21.069 4.5813C20.8155 4.43586 20.6161 4.23017 20.4706 3.96423C20.3252 3.69413 20.2525 3.38247 20.2525 3.02927C20.2525 2.67606 20.3231 2.36649 20.4644 2.10054C20.6057 1.8346 20.8031 1.63098 21.0565 1.4897C21.3142 1.34426 21.6092 1.27154 21.9416 1.27154C22.2658 1.27154 22.5525 1.34219 22.8018 1.48347C23.0511 1.62475 23.2423 1.82005 23.3752 2.06938C23.5124 2.31454 23.5809 2.59295 23.5809 2.90461ZM22.995 2.78618C22.995 2.5701 22.9472 2.38518 22.8517 2.23144C22.7561 2.07353 22.6252 1.9551 22.459 1.87615C22.2969 1.79304 22.1162 1.75149 21.9167 1.75149C21.63 1.75149 21.3848 1.84291 21.1812 2.02574C20.9818 2.20858 20.8675 2.46206 20.8384 2.78618H22.995Z" fill="black"/>
<path d="M24.8968 1.88238C24.9966 1.68708 25.1379 1.53541 25.3207 1.42737C25.5077 1.31933 25.7341 1.26531 26.0001 1.26531V1.85122H25.8505C25.2147 1.85122 24.8968 2.19612 24.8968 2.88591V4.74336H24.3296V1.32764H24.8968V1.88238Z" fill="black"/>
</svg>
