<svg width="24" height="5" viewBox="0 0 24 5" fill="none" xmlns="http://www.w3.org/2000/svg">
<path d="M2.16731 2.49644C2.32463 2.52128 2.46746 2.58545 2.5958 2.68895C2.72828 2.79245 2.83178 2.92079 2.9063 3.07397C2.98496 3.22715 3.02429 3.39069 3.02429 3.56457C3.02429 3.78399 2.9684 3.98271 2.85662 4.16073C2.74484 4.33461 2.58131 4.4733 2.36603 4.5768C2.15489 4.67617 1.90441 4.72585 1.61461 4.72585H0V0.397443H1.55251C1.84645 0.397443 2.09693 0.447123 2.30393 0.546484C2.51093 0.641705 2.66618 0.772116 2.76968 0.937717C2.87318 1.10332 2.92493 1.28962 2.92493 1.49662C2.92493 1.7533 2.85455 1.96651 2.71379 2.13626C2.57717 2.30186 2.39501 2.42192 2.16731 2.49644ZM0.565114 2.26667H1.51525C1.78021 2.26667 1.98514 2.20457 2.13005 2.08037C2.27495 1.95616 2.3474 1.78435 2.3474 1.56493C2.3474 1.34551 2.27495 1.1737 2.13005 1.0495C1.98514 0.925297 1.77607 0.863196 1.50283 0.863196H0.565114V2.26667ZM1.56493 4.26009C1.84645 4.26009 2.06588 4.19385 2.2232 4.06137C2.38052 3.92889 2.45918 3.74466 2.45918 3.50868C2.45918 3.26855 2.37638 3.08018 2.21078 2.94356C2.04518 2.8028 1.82368 2.73242 1.5463 2.73242H0.565114V4.26009H1.56493Z" fill="black"/>
<path d="M6.82659 1.32274V4.72585H6.26147V4.22283C6.15383 4.39671 6.00272 4.53333 5.80814 4.63269C5.6177 4.72792 5.40656 4.77553 5.17472 4.77553C4.90975 4.77553 4.6717 4.72171 4.46056 4.61406C4.24942 4.50228 4.08175 4.33668 3.95755 4.11726C3.83749 3.89784 3.77745 3.63081 3.77745 3.31617V1.32274H4.33636V3.24164C4.33636 3.57699 4.42123 3.83574 4.59097 4.0179C4.76071 4.19592 4.99255 4.28493 5.2865 4.28493C5.58872 4.28493 5.82677 4.19178 6.00065 4.00548C6.17453 3.81918 6.26147 3.54801 6.26147 3.19196V1.32274H6.82659Z" fill="black"/>
<path d="M7.56961 3.01187C7.56961 2.66411 7.63999 2.35982 7.78075 2.099C7.92151 1.83403 8.11402 1.6291 8.35829 1.4842C8.60669 1.3393 8.88407 1.26685 9.19043 1.26685C9.45539 1.26685 9.70173 1.32895 9.92943 1.45315C10.1571 1.57321 10.331 1.7326 10.4511 1.93132V0.130411H11.0224V4.72585H10.4511V4.08621C10.3393 4.28907 10.1737 4.45674 9.95427 4.58922C9.73485 4.71757 9.47816 4.78174 9.18422 4.78174C8.882 4.78174 8.60669 4.70722 8.35829 4.55817C8.11402 4.40913 7.92151 4.20006 7.78075 3.93096C7.63999 3.66186 7.56961 3.3555 7.56961 3.01187ZM10.4511 3.01808C10.4511 2.7614 10.3993 2.53784 10.2958 2.3474C10.1923 2.15696 10.0516 2.01206 9.87354 1.91269C9.69966 1.80919 9.50714 1.75744 9.296 1.75744C9.08486 1.75744 8.89235 1.80712 8.71847 1.90648C8.54459 2.00585 8.4059 2.15075 8.3024 2.34119C8.19889 2.53163 8.14714 2.75519 8.14714 3.01187C8.14714 3.27269 8.19889 3.5004 8.3024 3.69498C8.4059 3.88542 8.54459 4.03239 8.71847 4.13589C8.89235 4.23525 9.08486 4.28493 9.296 4.28493C9.50714 4.28493 9.69966 4.23525 9.87354 4.13589C10.0516 4.03239 10.1923 3.88542 10.2958 3.69498C10.3993 3.5004 10.4511 3.27476 10.4511 3.01808Z" fill="black"/>
<path d="M11.7662 3.01187C11.7662 2.66411 11.8366 2.35982 11.9774 2.099C12.1181 1.83403 12.3107 1.6291 12.5549 1.4842C12.8033 1.3393 13.0807 1.26685 13.3871 1.26685C13.652 1.26685 13.8984 1.32895 14.1261 1.45315C14.3538 1.57321 14.5276 1.7326 14.6477 1.93132V0.130411H15.219V4.72585H14.6477V4.08621C14.5359 4.28907 14.3703 4.45674 14.1509 4.58922C13.9315 4.71757 13.6748 4.78174 13.3809 4.78174C13.0786 4.78174 12.8033 4.70722 12.5549 4.55817C12.3107 4.40913 12.1181 4.20006 11.9774 3.93096C11.8366 3.66186 11.7662 3.3555 11.7662 3.01187ZM14.6477 3.01808C14.6477 2.7614 14.596 2.53784 14.4925 2.3474C14.389 2.15696 14.2482 2.01206 14.0702 1.91269C13.8963 1.80919 13.7038 1.75744 13.4926 1.75744C13.2815 1.75744 13.089 1.80712 12.9151 1.90648C12.7412 2.00585 12.6025 2.15075 12.499 2.34119C12.3955 2.53163 12.3438 2.75519 12.3438 3.01187C12.3438 3.27269 12.3955 3.5004 12.499 3.69498C12.6025 3.88542 12.7412 4.03239 12.9151 4.13589C13.089 4.23525 13.2815 4.28493 13.4926 4.28493C13.7038 4.28493 13.8963 4.23525 14.0702 4.13589C14.2482 4.03239 14.389 3.88542 14.4925 3.69498C14.596 3.5004 14.6477 3.27476 14.6477 3.01808Z" fill="black"/>
<path d="M16.4659 0.770046C16.3582 0.770046 16.2672 0.732785 16.1926 0.658265C16.1181 0.583744 16.0809 0.492664 16.0809 0.385023C16.0809 0.277382 16.1181 0.186301 16.1926 0.111781C16.2672 0.0372603 16.3582 0 16.4659 0C16.5694 0 16.6563 0.0372603 16.7267 0.111781C16.8012 0.186301 16.8385 0.277382 16.8385 0.385023C16.8385 0.492664 16.8012 0.583744 16.7267 0.658265C16.6563 0.732785 16.5694 0.770046 16.4659 0.770046ZM16.7391 1.32274V4.72585H16.174V1.32274H16.7391Z" fill="black"/>
<path d="M20.8073 2.89388C20.8073 3.00152 20.8011 3.11537 20.7887 3.23543H18.0687C18.0894 3.57078 18.2032 3.83367 18.4102 4.02411C18.6214 4.21041 18.876 4.30356 19.1741 4.30356C19.4183 4.30356 19.6212 4.24767 19.7826 4.13589C19.9482 4.01997 20.0642 3.86679 20.1304 3.67635H20.739C20.6479 4.00341 20.4657 4.27044 20.1925 4.47744C19.9193 4.68031 19.5798 4.78174 19.1741 4.78174C18.8511 4.78174 18.5613 4.70928 18.3046 4.56438C18.0521 4.41948 17.8534 4.21455 17.7085 3.94959C17.5636 3.68049 17.4911 3.36999 17.4911 3.01808C17.4911 2.66618 17.5615 2.35775 17.7023 2.09279C17.843 1.82782 18.0397 1.62496 18.2922 1.4842C18.5489 1.3393 18.8429 1.26685 19.1741 1.26685C19.497 1.26685 19.7826 1.33723 20.031 1.47799C20.2794 1.61875 20.4699 1.81333 20.6024 2.06174C20.739 2.306 20.8073 2.58338 20.8073 2.89388ZM20.2236 2.77589C20.2236 2.56061 20.1759 2.37638 20.0807 2.2232C19.9855 2.06588 19.8551 1.94788 19.6895 1.86922C19.528 1.78642 19.3479 1.74502 19.1492 1.74502C18.8636 1.74502 18.6193 1.8361 18.4164 2.01827C18.2177 2.20043 18.1039 2.45297 18.0749 2.77589H20.2236Z" fill="black"/>
<path d="M22.758 4.78174C22.4972 4.78174 22.2632 4.73827 22.0562 4.65133C21.8492 4.56024 21.6857 4.43604 21.5656 4.27872C21.4456 4.11726 21.3793 3.93303 21.3669 3.72603H21.9507C21.9672 3.89577 22.0459 4.03446 22.1867 4.1421C22.3316 4.24974 22.5199 4.30356 22.7518 4.30356C22.967 4.30356 23.1368 4.25595 23.261 4.16073C23.3852 4.06551 23.4473 3.94545 23.4473 3.80055C23.4473 3.65151 23.3811 3.5418 23.2486 3.47142C23.1161 3.3969 22.9112 3.32445 22.6338 3.25406C22.3812 3.18782 22.1742 3.12158 22.0128 3.05534C21.8554 2.98496 21.7188 2.88353 21.6029 2.75105C21.4911 2.61443 21.4352 2.43641 21.4352 2.21699C21.4352 2.04311 21.487 1.88371 21.5905 1.73881C21.694 1.59391 21.841 1.48006 22.0314 1.39726C22.2218 1.31032 22.4392 1.26685 22.6835 1.26685C23.0602 1.26685 23.3645 1.36207 23.5963 1.55251C23.8282 1.74295 23.9524 2.00377 23.9689 2.33498H23.4038C23.3914 2.15696 23.319 2.01413 23.1865 1.90648C23.0581 1.79884 22.8842 1.74502 22.6648 1.74502C22.462 1.74502 22.3005 1.78849 22.1804 1.87543C22.0604 1.96237 22.0004 2.07623 22.0004 2.21699C22.0004 2.32877 22.0355 2.42192 22.1059 2.49644C22.1804 2.56682 22.2715 2.62478 22.3792 2.67032C22.4909 2.71172 22.6441 2.75933 22.8387 2.81315C23.083 2.87939 23.2817 2.94563 23.4349 3.01187C23.5881 3.07397 23.7185 3.16919 23.8261 3.29753C23.9379 3.42588 23.9958 3.59355 24 3.80055C24 3.98685 23.9482 4.15452 23.8447 4.30356C23.7412 4.4526 23.5943 4.57059 23.4038 4.65753C23.2175 4.74034 23.0022 4.78174 22.758 4.78174Z" fill="black"/>
</svg>
