<svg width="28" height="27" viewBox="0 0 28 27" fill="none" xmlns="http://www.w3.org/2000/svg">
<path d="M25.3273 9.41894C22.7946 9.41894 21.7591 7.60839 23.0185 5.38765C23.7461 4.10046 23.3123 2.45966 22.039 1.72412L19.6182 0.323778C18.5127 -0.341031 17.0855 0.0550256 16.4278 1.17247L16.2739 1.44122C15.0145 3.66197 12.9435 3.66197 11.6702 1.44122L11.5162 1.17247C10.8866 0.0550256 9.45927 -0.341031 8.35382 0.323778L5.93303 1.72412C4.65967 2.45966 4.22589 4.11461 4.95352 5.40179C6.22689 7.60839 5.1914 9.41894 2.65867 9.41894C1.2034 9.41894 0 10.6213 0 12.1065V14.596C0 16.067 1.18941 17.2835 2.65867 17.2835C5.1914 17.2835 6.22689 19.094 4.95352 21.3148C4.22589 22.602 4.65967 24.2428 5.93303 24.9783L8.35382 26.3787C9.45927 27.0435 10.8866 26.6474 11.5442 25.53L11.6982 25.2612C12.9575 23.0405 15.0285 23.0405 16.3018 25.2612L16.4558 25.53C17.1134 26.6474 18.5407 27.0435 19.6462 26.3787L22.067 24.9783C23.3403 24.2428 23.7741 22.5878 23.0465 21.3148C21.7731 19.094 22.8086 17.2835 25.3413 17.2835C26.7966 17.2835 28 16.0812 28 14.596V12.1065C27.986 10.6354 26.7966 9.41894 25.3273 9.41894ZM13.993 17.9483C11.4883 17.9483 9.44528 15.8831 9.44528 13.3512C9.44528 10.8193 11.4883 8.75413 13.993 8.75413C16.4978 8.75413 18.5407 10.8193 18.5407 13.3512C18.5407 15.8831 16.4978 17.9483 13.993 17.9483Z" fill="#2EB9B8"/>
</svg>
