<svg width="27" height="28" viewBox="0 0 27 28" fill="none" xmlns="http://www.w3.org/2000/svg">
<path d="M27 25.2598C27 25.4707 26.8813 25.6641 26.644 25.8398C26.4067 26.0156 26.042 26.1606 25.5498 26.2749C25.0576 26.3892 24.5522 26.4946 24.0337 26.5913C23.5151 26.688 22.8516 26.7627 22.043 26.8154C21.2344 26.8682 20.5312 26.9077 19.9336 26.9341C19.3359 26.9604 18.5669 26.9824 17.6265 27C16.686 27.0176 15.9741 27.0264 15.4907 27.0264H11.5093L9.37354 27L7.06641 26.9341L4.95703 26.8154L2.96631 26.5913L1.4502 26.2749L0.355957 25.8398L0 25.2598C0.0351562 23.7129 1.00195 22.3462 2.90039 21.1597C4.79883 19.9731 7.20703 19.1865 10.125 18.7998V17.9297C9.21094 17.5254 8.41992 16.9541 7.75195 16.2158C7.08398 15.4775 6.55664 14.6118 6.16992 13.6187C5.7832 12.6255 5.50195 11.562 5.32617 10.4282C5.15039 9.29443 5.0625 8.06836 5.0625 6.75C5.0625 5.625 5.28223 4.62305 5.72168 3.74414C6.16113 2.86523 6.76758 2.15771 7.54102 1.62158C8.31445 1.08545 9.20215 0.681152 10.2041 0.408691C11.2061 0.13623 12.3047 0 13.5 0C14.6953 0 15.7939 0.13623 16.7959 0.408691C17.7979 0.681152 18.6855 1.08545 19.459 1.62158C20.2324 2.15771 20.8389 2.86523 21.2783 3.74414C21.7178 4.62305 21.9375 5.625 21.9375 6.75C21.9375 12.9023 20.25 16.6465 16.875 17.9824V18.7998C19.793 19.1865 22.2012 19.9731 24.0996 21.1597C25.998 22.3462 26.9648 23.7129 27 25.2598Z" fill="black"/>
</svg>
