<svg width="22" height="23" viewBox="0 0 22 23" fill="none" xmlns="http://www.w3.org/2000/svg">
<path d="M20.8811 1.11897C19.9238 0.161673 18.5704 -0.212444 17.261 0.117659L6.47765 2.8135C4.66208 3.26465 3.26465 4.67309 2.8135 6.47765L0.117659 17.272C-0.212444 18.5814 0.161673 19.9348 1.11897 20.8921C1.8452 21.6074 2.8025 22.0035 3.79281 22.0035C4.10091 22.0035 4.42001 21.9705 4.7281 21.8824L15.5224 19.1866C17.327 18.7355 18.7355 17.338 19.1866 15.5224L21.8824 4.7281C22.2125 3.41869 21.8384 2.06527 20.8811 1.11897ZM11 15.2694C8.64533 15.2694 6.73073 13.3548 6.73073 11C6.73073 8.64533 8.64533 6.73073 11 6.73073C13.3548 6.73073 15.2694 8.64533 15.2694 11C15.2694 13.3548 13.3548 15.2694 11 15.2694Z" fill="#282A2D"/>
</svg>
